<svg enable-background="new 0 0 37 60" height="512" viewBox="0 0 37 60" width="512" xmlns="http://www.w3.org/2000/svg"><path d="m6 3c-2.757 0-5 2.243-5 5v3h4v-3c0-.551.449-1 1-1h11v-4z" fill="#556080"/><path d="m19 8h4v8h-4z" fill="#556080"/><path d="m16 1h10v8h-10z" fill="#7383bf"/><path d="m16 15h10v5h-10z" fill="#7383bf"/><path d="m33.998 59h-25.996c-1.106 0-2.002-.896-2.002-2.002v-35.996c0-1.106.896-2.002 2.002-2.002h25.997c1.105 0 2.001.896 2.001 2.002v35.997c0 1.105-.896 2.001-2.002 2.001z" fill="#c6e2f7"/><path d="m6 29h30v22h-30z" fill="#f2ecbf"/><circle cx="21" cy="40" fill="#fff" r="7"/><path d="m19 19h4v4h-4z" fill="#5d9bc1"/><g fill="#4d007e"><path d="m21 48c-4.411 0-8-3.589-8-8s3.589-8 8-8 8 3.589 8 8-3.589 8-8 8zm0-14c-3.309 0-6 2.691-6 6s2.691 6 6 6 6-2.691 6-6-2.691-6-6-6z"/><path d="m26 10h-10c-.552 0-1-.447-1-1v-8c0-.553.448-1 1-1h10c.552 0 1 .447 1 1v8c0 .553-.448 1-1 1zm-9-2h8v-6h-8z"/><path d="m26 20h-10c-.552 0-1-.447-1-1v-4c0-.553.448-1 1-1h10c.552 0 1 .447 1 1v4c0 .553-.448 1-1 1zm-9-2h8v-2h-8z"/><path d="m33.999 60h-25.998c-1.654 0-3.001-1.347-3.001-3.002v-35.996c0-1.655 1.347-3.002 3.001-3.002h25.997c1.655 0 3.002 1.347 3.002 3.002v35.996c0 1.655-1.347 3.002-3.001 3.002zm-25.998-40c-.552 0-1.001.449-1.001 1.002v35.996c0 .553.449 1.002 1.001 1.002h25.997c.553 0 1.002-.449 1.002-1.002v-35.996c0-.553-.449-1.002-1.001-1.002z"/><path d="m23 24h-4c-.552 0-1-.447-1-1v-4c0-.553.448-1 1-1h4c.552 0 1 .447 1 1v4c0 .553-.448 1-1 1zm-3-2h2v-2h-2z"/><path d="m23 16h-4c-.552 0-1-.447-1-1v-6c0-.553.448-1 1-1h4c.552 0 1 .447 1 1v6c0 .553-.448 1-1 1zm-3-2h2v-4h-2z"/><path d="m21 30c-.552 0-1-.447-1-1v-6c0-.553.448-1 1-1s1 .447 1 1v6c0 .553-.448 1-1 1z"/><path d="m5 12h-4c-.552 0-1-.447-1-1v-3c0-3.309 2.691-6 6-6h10c.552 0 1 .447 1 1v4c0 .553-.448 1-1 1h-10v3c0 .553-.448 1-1 1zm-3-2h2v-2c0-1.103.897-2 2-2h9v-2h-9c-2.206 0-4 1.794-4 4z"/><path d="m36 52h-30c-.552 0-1-.447-1-1v-22c0-.553.448-1 1-1h30c.552 0 1 .447 1 1v22c0 .553-.448 1-1 1zm-29-2h28v-20h-28z"/><path d="m36 26h-4c-.552 0-1-.447-1-1s.448-1 1-1h4c.552 0 1 .447 1 1s-.448 1-1 1z"/><path d="m28 26h-2c-.552 0-1-.447-1-1s.448-1 1-1h2c.552 0 1 .447 1 1s-.448 1-1 1z"/><path d="m18 56h-2c-.552 0-1-.447-1-1s.448-1 1-1h2c.552 0 1 .447 1 1s-.448 1-1 1z"/><path d="m12 56h-6c-.552 0-1-.447-1-1s.448-1 1-1h6c.552 0 1 .447 1 1s-.448 1-1 1z"/><path d="m21 44c-.552 0-1-.447-1-1v-6c0-.553.448-1 1-1s1 .447 1 1v6c0 .553-.448 1-1 1z"/><path d="m24 41h-6c-.552 0-1-.447-1-1s.448-1 1-1h6c.552 0 1 .447 1 1s-.448 1-1 1z"/></g></svg>