<svg id="Layer_1" enable-background="new 0 0 512 512" height="512" viewBox="0 0 512 512" width="512" xmlns="http://www.w3.org/2000/svg"><g><path d="m304.2 512h-289.2c-8.284 0-15-6.716-15-15v-48.2c0-43.708 35.559-79.267 79.267-79.267h160.667c43.708 0 79.267 35.559 79.267 79.267v48.2c-.001 8.284-6.717 15-15.001 15z" fill="#412830"/><path d="m319.2 497v-48.2c0-43.708-35.559-79.267-79.267-79.267h-80.335v142.467h144.602c8.284 0 15-6.716 15-15z" fill="#001e28"/><path d="m272.066 222.8h-224.932c-8.284 0-15-6.716-15-15v-126.4c0-8.284 6.716-15 15-15h224.933c8.284 0 15 6.716 15 15v126.4c-.001 8.284-6.716 15-15.001 15z" fill="#ffdcd2"/><path d="m287.066 207.8v-126.4c0-8.284-6.716-15-15-15h-112.468v156.4h112.468c8.285 0 15-6.716 15-15z" fill="#ffc1c4"/><circle clip-rule="evenodd" cx="111.4" cy="159.6" fill="#412830" fill-rule="evenodd" r="15"/><circle clip-rule="evenodd" cx="207.8" cy="159.6" fill="#412830" fill-rule="evenodd" r="15"/><path d="m159.6 463.8c-3.839 0-7.678-1.464-10.606-4.394l-64.267-64.266c-2.813-2.813-4.394-6.628-4.394-10.606v-48.2c0-8.284 6.716-15 15-15h128.533c8.284 0 15 6.716 15 15v48.2c0 3.978-1.58 7.793-4.394 10.606l-64.267 64.267c-2.928 2.928-6.767 4.393-10.605 4.393z" fill="#ffc1c4"/><path d="m47.134 238.867h-16.068c-8.284 0-15-6.716-15-15s6.716-15 15-15h16.067c8.284 0 15 6.716 15 15s-6.715 15-14.999 15z" fill="#f3e9e3"/><path d="m47.134 303.133h-16.068c-8.284 0-15-6.716-15-15s6.716-15 15-15h16.067c8.284 0 15 6.716 15 15s-6.715 15-14.999 15z" fill="#f3e9e3"/><path d="m288.134 238.867h-16.067c-8.284 0-15-6.716-15-15s6.716-15 15-15h16.067c8.284 0 15 6.716 15 15s-6.716 15-15 15z" fill="#ebdcd2"/><path d="m288.134 303.133h-16.067c-8.284 0-15-6.716-15-15s6.716-15 15-15h16.067c8.284 0 15 6.716 15 15s-6.716 15-15 15z" fill="#ebdcd2"/><path d="m170.206 459.406 64.267-64.267c2.813-2.813 4.394-6.628 4.394-10.606v-48.2c0-8.284-6.716-15-15-15h-64.268v142.467h.001c3.838 0 7.677-1.465 10.606-4.394z" fill="#ffa5b6"/><path d="m223.866 351.333h-128.533c-34.849 0-63.199-28.352-63.199-63.2v-80.333c0-8.284 6.716-15 15-15h224.933c8.284 0 15 6.716 15 15v80.333c-.001 34.849-28.352 63.2-63.201 63.2z" fill="#faf5f5"/><path d="m287.066 288.133v-80.333c0-8.284-6.716-15-15-15h-112.468v158.534h64.268c34.849-.001 63.2-28.352 63.2-63.201z" fill="#f3e9e3"/><path d="m191.746 0h-64.296c-61.417 0-111.384 49.967-111.384 111.384v.016c0 8.284 6.716 15 15 15h32.149c41.108 0 77.083-22.388 96.382-55.613 19.299 33.226 55.274 55.613 96.382 55.613h32.149c8.284 0 15-6.716 15-15v-.016c.002-61.417-49.965-111.384-111.382-111.384z" fill="#823237"/><g fill="#00a08c"><path d="m497 447.733h-16.067c-8.284 0-15-6.716-15-15s6.716-15 15-15h16.067c8.284 0 15 6.716 15 15s-6.716 15-15 15z"/><path d="m384.533 447.733h-16.066c-8.284 0-15-6.716-15-15s6.716-15 15-15h16.066c8.284 0 15 6.716 15 15s-6.716 15-15 15z"/><path d="m432.733 512c-8.284 0-15-6.716-15-15v-16.067c0-8.284 6.716-15 15-15s15 6.716 15 15v16.067c0 8.284-6.715 15-15 15z"/><path d="m432.733 399.533c-8.284 0-15-6.716-15-15v-16.066c0-8.284 6.716-15 15-15s15 6.716 15 15v16.066c0 8.284-6.715 15-15 15z"/><path d="m409.273 388.039-22.172-22.151c-5.861-5.855-15.358-5.85-21.213.01-5.855 5.861-5.851 15.358.01 21.213l22.172 22.151c5.861 5.855 15.358 5.85 21.213-.01 5.856-5.861 5.851-15.358-.01-21.213z"/><path d="m456.193 388.039 22.172-22.151c5.861-5.855 15.358-5.85 21.213.01 5.855 5.861 5.851 15.358-.01 21.213l-22.172 22.151c-5.861 5.855-15.358 5.85-21.213-.01-5.855-5.861-5.85-15.358.01-21.213z"/><path d="m499.568 478.355-22.172-22.151c-5.861-5.855-15.358-5.85-21.213.01-5.855 5.861-5.851 15.358.01 21.213l22.172 22.151c5.861 5.855 15.358 5.85 21.213-.01 5.856-5.86 5.851-15.358-.01-21.213z"/><path d="m365.899 478.355 22.172-22.151c5.861-5.855 15.358-5.85 21.213.01 5.855 5.861 5.851 15.358-.01 21.213l-22.172 22.151c-5.861 5.855-15.358 5.85-21.213-.01s-5.851-15.358.01-21.213z"/></g><ellipse cx="432.733" cy="432.733" fill="#dff473" rx="63.2" ry="63.2" transform="matrix(.707 -.707 .707 .707 -179.244 432.733)"/><path d="m432.733 495.933v-126.4c34.849 0 63.2 28.352 63.2 63.2s-28.351 63.2-63.2 63.2z" fill="#8ee26b"/><path d="m191.746 0h-32.148v70.786c19.299 33.226 55.274 55.613 96.382 55.613h32.149c8.284 0 15-6.716 15-15v-.016c.001-61.416-49.966-111.383-111.383-111.383z" fill="#412830"/></g></svg>